<?xml version="1.0" encoding="UTF-8" standalone="no"?>
<!-- Created with Inkscape (http://www.inkscape.org/) -->

<svg
   width="2000"
   height="500"
   viewBox="0 0 529.16666 132.29167"
   version="1.1"
   id="svg1"
   inkscape:version="1.3.1 (9b9bdc1480, 2023-11-25, custom)"
   sodipodi:docname="foreground.svg"
   xml:space="preserve"
   xmlns:inkscape="http://www.inkscape.org/namespaces/inkscape"
   xmlns:sodipodi="http://sodipodi.sourceforge.net/DTD/sodipodi-0.dtd"
   xmlns="http://www.w3.org/2000/svg"
   xmlns:svg="http://www.w3.org/2000/svg"><sodipodi:namedview
     id="namedview1"
     pagecolor="#ffffff"
     bordercolor="#000000"
     borderopacity="0.25"
     inkscape:showpageshadow="2"
     inkscape:pageopacity="0.0"
     inkscape:pagecheckerboard="0"
     inkscape:deskcolor="#d1d1d1"
     inkscape:document-units="mm"
     showguides="false"
     inkscape:zoom="0.5"
     inkscape:cx="1043"
     inkscape:cy="247"
     inkscape:window-width="1920"
     inkscape:window-height="1043"
     inkscape:window-x="0"
     inkscape:window-y="0"
     inkscape:window-maximized="1"
     inkscape:current-layer="layer1" /><defs
     id="defs1" /><g
     inkscape:label="Layer 1"
     inkscape:groupmode="layer"
     id="layer1"><path
       id="path3"
       style="fill:#7e7e7e;fill-opacity:0.51345485;stroke-width:0.264466"
       d="m 264.36016,69.197387 14.5717,0.26758 2.91207,-5.41477 8.50484,0.2267 4.73373,10.81334 10.58695,0.0308 -3.48638,-7.85011 6.97116,-1.51238 10.50768,11.84318 10.19544,-0.56026 5.04596,-6.95629 8.06318,-0.0907 3.8229,-6.11105 14.59105,-0.13601 5.28055,9.36249 8.47894,-0.21212 9.93499,-16.01599 15.34495,0.31737 7.36104,14.94243 13.36799,0.31738 4.31793,10.31461 20.20973,-0.28661 4.47325,-9.96809 16.932,-0.16517 5.22715,-6.24706 6.97115,-0.0761 2.99134,4.97595 4.60268,-5.64146 9.5726,-0.60398 6.78833,-10.813345 2.83442,4.611625 4.99418,-8.604692 11.26159,-0.817723 3.95394,11.495055 2.6257,8.56541 8.3e-4,63.281483 -264.66158,-0.26474 z m -264.63665038,3e-5 12.79532038,-0.12833 3.215022,5.66333 c 0,0 2.915578,-1.65874 4.503137,-1.57229 1.363008,0.0742 2.683501,0.84707 3.696749,1.76174 1.257339,1.13502 2.642617,4.3404 2.642617,4.3404 l 4.854514,-3.96959 0.05182,-9.24106 5.962081,-4.13638 0.442056,11.25946 c 0,0 2.692466,4.52414 4.920093,4.52257 2.041857,-10e-4 4.503947,-4.15176 4.503947,-4.15176 l 0.01296,-4.76384 5.583986,-2.92679 0.312516,7.66067 c 0,0 -0.728663,0.87683 0.6898,1.78442 1.418466,0.90759 3.33161,0.18135 3.33161,0.18135 l 5.128977,4.23515 8.135117,-8.30351 -0.234791,-3.00254 13.341815,4.4e-4 0.221028,2.5487 6.273789,7.50847 5.98718,-6.17825 0.13035,-6.14749 4.894187,-3.93964 -0.35138,8.57475 2.96809,3.27493 5.03668,-4.36388 -0.13035,-3.60703 15.42417,1.5e-4 0.16921,3.32756 4.92009,-0.0308 4.9201,6.40576 4.89418,-3.73562 0.56026,-7.97805 5.83093,-3.64493 0.4291,8.16669 c 0,0 3.50761,8.17667 7.17247,8.34886 1.89032,0.0888 4.08699,-3.94045 4.08699,-3.94045 l 0.31251,-8.21931 5.08931,-3.13082 -0.33842,8.82491 3.17535,3.27413 0.33842,-2.3212 8.25251,6.55635 7.21134,-9.35441 0.10363,-4.15885 17.62392,-2e-4 0.31252,3.5915 3.74856,5.33138 8.40877,-1.50509 c 0,0 7.63108,-5.75338 12.13062,-6.99436 4.79377,-1.32213 14.91654,-0.22669 14.91654,-0.22669 l -0.0389,-7.12389 4.67316,-4.340407 0.0777,10.238527 10.66034,-0.068 10.69839,5.82324 -0.1166,63.082353 -264.38397438,0.0915 z" /></g></svg>
