<?xml version="1.0" encoding="UTF-8" standalone="no"?>
<!-- Created with Inkscape (http://www.inkscape.org/) -->

<svg
   width="2000"
   height="500"
   viewBox="0 0 529.16666 132.29167"
   version="1.1"
   id="svg1"
   inkscape:version="1.3.1 (9b9bdc1480, 2023-11-25, custom)"
   sodipodi:docname="forground2.svg"
   xml:space="preserve"
   xmlns:inkscape="http://www.inkscape.org/namespaces/inkscape"
   xmlns:sodipodi="http://sodipodi.sourceforge.net/DTD/sodipodi-0.dtd"
   xmlns="http://www.w3.org/2000/svg"
   xmlns:svg="http://www.w3.org/2000/svg"><sodipodi:namedview
     id="namedview1"
     pagecolor="#ffffff"
     bordercolor="#000000"
     borderopacity="0.25"
     inkscape:showpageshadow="2"
     inkscape:pageopacity="0.0"
     inkscape:pagecheckerboard="0"
     inkscape:deskcolor="#d1d1d1"
     inkscape:document-units="mm"
     showguides="false"
     inkscape:zoom="2"
     inkscape:cx="54.25"
     inkscape:cy="362.75"
     inkscape:window-width="1920"
     inkscape:window-height="1043"
     inkscape:window-x="0"
     inkscape:window-y="0"
     inkscape:window-maximized="1"
     inkscape:current-layer="layer1" /><defs
     id="defs1" /><g
     inkscape:label="Layer 1"
     inkscape:groupmode="layer"
     id="layer1"><path
       style="fill:#7e7e7e;fill-opacity:0.36866;stroke-width:0.215015"
       d="m -0.03926873,96.818551 34.06303573,-0.522835 11.895915,8.082764 22.497851,-0.0123 8.040855,-4.794227 16.683219,-0.140606 8.373643,5.904053 21.96662,-0.36994 9.70276,-7.662307 10.10378,0.432739 7.24504,6.783188 11.36468,-0.12696 4.45244,-7.102617 33.96382,-0.879125 9.60355,5.699292 8.20828,-9.308621 31.80168,0.255275 15.55253,9.232176 21.10259,0.15289 6.67866,-8.096411 15.85228,0.446387 7.41039,6.948364 38.38319,0.64979 10.56679,-9.409643 43.69964,0.178828 9.93635,8.122355 26.91723,0.19111 8.20827,-4.960775 24.69102,-0.776743 10.13476,5.265188 c 0,0 10.83554,-0.0246 17.04909,-0.53512 6.21358,-0.510539 16.81552,0.48462 16.81552,0.48462 l 6.91224,-4.526667 -0.46715,36.034357 -529.21213123,-0.14175 z"
       id="path4-9"
       sodipodi:nodetypes="ccccccccccccccccccccccccccccccsccccc" /></g></svg>
