<?xml version="1.0" encoding="UTF-8" standalone="no"?>
<!-- Created with Inkscape (http://www.inkscape.org/) -->

<svg
   width="2000"
   height="500"
   viewBox="0 0 529.16666 132.29167"
   version="1.1"
   id="svg1"
   inkscape:version="1.3.1 (9b9bdc1480, 2023-11-25, custom)"
   sodipodi:docname="forground3.svg"
   xml:space="preserve"
   xmlns:inkscape="http://www.inkscape.org/namespaces/inkscape"
   xmlns:sodipodi="http://sodipodi.sourceforge.net/DTD/sodipodi-0.dtd"
   xmlns="http://www.w3.org/2000/svg"
   xmlns:svg="http://www.w3.org/2000/svg"><sodipodi:namedview
     id="namedview1"
     pagecolor="#ffffff"
     bordercolor="#000000"
     borderopacity="0.25"
     inkscape:showpageshadow="2"
     inkscape:pageopacity="0.0"
     inkscape:pagecheckerboard="0"
     inkscape:deskcolor="#d1d1d1"
     inkscape:document-units="mm"
     showguides="false"
     inkscape:zoom="2"
     inkscape:cx="1962.75"
     inkscape:cy="362.75"
     inkscape:window-width="1920"
     inkscape:window-height="1043"
     inkscape:window-x="0"
     inkscape:window-y="0"
     inkscape:window-maximized="1"
     inkscape:current-layer="layer1" /><defs
     id="defs1" /><g
     inkscape:label="Layer 1"
     inkscape:groupmode="layer"
     id="layer1"><path
       style="fill:#7e7e7e;fill-opacity:0.36866;stroke-width:0.18073"
       d="m 529.25244,107.183 -33.41502,-0.0899 -11.89591,5.71061 -22.49785,-0.009 -8.04086,-3.38721 -16.68321,-0.0993 -8.37365,4.17132 -21.96662,-0.26137 -9.70276,-5.41355 -10.10378,0.30574 -7.24504,4.79243 -11.36468,-0.0897 -4.45244,-5.01812 -33.96382,-0.62111 -9.60355,4.02665 -8.20828,-6.5767 -31.80168,0.18035 -15.55253,6.52269 -21.10259,0.10802 -6.67866,-5.72025 -15.85228,0.31538 -7.41039,4.90914 -38.38319,0.45908 -10.56679,-6.64807 -43.69964,0.12635 -9.93635,5.73858 -26.917232,0.13502 -8.20827,-3.50487 -24.69102,-0.54878 -10.13476,3.71994 c 0,0 -10.83554,-0.0174 -17.04909,-0.37807 -6.21358,-0.3607 -16.8155204,0.34239 -16.8155204,0.34239 l -6.91223997,-3.19816 0.03513714,25.25352 529.32013523,-0.0638 z"
       id="path4"
       sodipodi:nodetypes="cccccccccccccccccccccccccccccccccccc" /></g></svg>
