<?xml version="1.0" encoding="UTF-8" standalone="no"?>
<!-- Created with Inkscape (http://www.inkscape.org/) -->

<svg
   width="529.16669mm"
   height="105.83334mm"
   viewBox="0 0 529.16669 105.83334"
   version="1.1"
   id="svg1"
   inkscape:version="1.3.1 (9b9bdc1480, 2023-11-25, custom)"
   sodipodi:docname="lanscape1.svg"
   xmlns:inkscape="http://www.inkscape.org/namespaces/inkscape"
   xmlns:sodipodi="http://sodipodi.sourceforge.net/DTD/sodipodi-0.dtd"
   xmlns:xlink="http://www.w3.org/1999/xlink"
   xmlns="http://www.w3.org/2000/svg"
   xmlns:svg="http://www.w3.org/2000/svg">
  <sodipodi:namedview
     id="namedview1"
     pagecolor="#ffffff"
     bordercolor="#000000"
     borderopacity="0.25"
     inkscape:showpageshadow="2"
     inkscape:pageopacity="0.0"
     inkscape:pagecheckerboard="0"
     inkscape:deskcolor="#d1d1d1"
     inkscape:document-units="mm"
     inkscape:zoom="0.30522295"
     inkscape:cx="977.97364"
     inkscape:cy="307.9716"
     inkscape:window-width="1366"
     inkscape:window-height="704"
     inkscape:window-x="0"
     inkscape:window-y="0"
     inkscape:window-maximized="1"
     inkscape:current-layer="layer1" />
  <defs
     id="defs1">
    <linearGradient
       id="linearGradient24"
       inkscape:collect="always">
      <stop
         style="stop-color:#0022f8;stop-opacity:1;"
         offset="0"
         id="stop24" />
      <stop
         style="stop-color:#ffffff;stop-opacity:0;"
         offset="1"
         id="stop25" />
    </linearGradient>
    <linearGradient
       id="linearGradient19"
       inkscape:collect="always">
      <stop
         style="stop-color:#ff0000;stop-opacity:1;"
         offset="0"
         id="stop19" />
      <stop
         style="stop-color:#1400ff;stop-opacity:0;"
         offset="1"
         id="stop20" />
    </linearGradient>
    <linearGradient
       id="linearGradient16"
       inkscape:collect="always">
      <stop
         style="stop-color:#403030;stop-opacity:1;"
         offset="0"
         id="stop16" />
      <stop
         style="stop-color:#ff5100;stop-opacity:0.18712285;"
         offset="1"
         id="stop17" />
    </linearGradient>
    <linearGradient
       inkscape:collect="always"
       xlink:href="#linearGradient16"
       id="linearGradient17"
       x1="130.87396"
       y1="158.66005"
       x2="124.70779"
       y2="44.848385"
       gradientUnits="userSpaceOnUse" />
    <linearGradient
       inkscape:collect="always"
       xlink:href="#linearGradient19"
       id="linearGradient20"
       x1="262.98721"
       y1="152.76779"
       x2="258.38403"
       y2="59.300087"
       gradientUnits="userSpaceOnUse" />
    <linearGradient
       inkscape:collect="always"
       xlink:href="#linearGradient24"
       id="linearGradient25"
       x1="425.09595"
       y1="94.187874"
       x2="373.09155"
       y2="87.987846"
       gradientUnits="userSpaceOnUse" />
  </defs>
  <g
     inkscape:label="Layer 1"
     inkscape:groupmode="layer"
     id="layer1"
     transform="translate(36.682564,-40.934002)"
     style="display:inline">
    <rect
       style="fill:#ffffff;stroke-width:0.465308"
       id="rect1"
       width="529.16669"
       height="105.83334"
       x="-36.682564"
       y="40.934002" />
    <path
       style="fill:url(#linearGradient17);stroke-width:0.238605;fill-opacity:1"
       d="M 66.695172,78.708151 C 61.750697,46.545958 65.61328,47.025208 65.61328,47.025208 l 20.456961,2.489855 -0.57087,30.687007 32.026289,-2.487991 -2.71163,34.655801 40.45124,-8.02745 c 0,0 54.68848,31.9881 -4.24009,32.19029 -58.928572,0.20218 -74.774833,-25.06331 -74.774833,-25.06331 z"
       id="path1" />
    <g
       id="g17"
       style="fill:url(#linearGradient20)">
      <path
         style="fill:url(#linearGradient20);stroke-width:0.264583"
         d="m 207.46801,134.96624 c 4.52535,-42.29167 4.52535,-42.29167 4.52535,-42.29167 l 15.87105,-4.803095 -0.54472,45.664125 z"
         id="path3" />
      <path
         style="fill:url(#linearGradient20);fill-opacity:1;stroke-width:0.264583"
         d="m 229.23159,89.403868 c -0.18437,35.953782 -2.16092,34.075402 -2.16092,34.075402 l -10.41668,-0.22267 1.01282,-31.885762 z"
         id="path4" />
      <path
         style="fill:url(#linearGradient20);fill-opacity:1;stroke-width:0.264583"
         d="m 252.5515,84.819856 c 50.15357,10.876401 51.3723,-7.204644 49.74413,9.893517"
         id="path5" />
      <path
         style="fill:url(#linearGradient20);fill-opacity:1;stroke-width:0.264583"
         d="m 237.96623,85.042532 c 67.4325,-1.134928 66.52504,-2.059154 66.52504,-2.059154 l 1.3157,11.304994 -68.78771,-0.397465 z"
         id="path6" />
      <path
         style="fill:url(#linearGradient20);fill-opacity:1;stroke-width:0.264583"
         d="m 243.76778,92.977457 c 1.84007,25.112103 1.67845,25.036673 1.67845,25.036673 l 9.21591,-0.5938 0.19035,-22.716535 z"
         id="path7" />
      <path
         style="fill:url(#linearGradient20);fill-opacity:1;stroke-width:0.264583"
         d="m 261.65488,94.624779 c 1.43063,21.606751 0.79613,20.784281 0.79613,20.784281 l 9.22908,1.275 -0.1736,-21.459491 z"
         id="path8" />
      <path
         style="fill:url(#linearGradient20);fill-opacity:1;stroke-width:0.264583"
         d="m 277.70191,94.165063 c 0.81768,20.572377 0.16881,21.276327 0.16881,21.276327 l 13.38809,0.83683 -0.37592,-19.818158 -10.95781,-1.233099 z"
         id="path9" />
      <path
         style="fill:url(#linearGradient20);fill-opacity:1;stroke-width:0.264583"
         d="m 296.20197,96.750976 c 0.5112,13.561684 1.0212,11.722814 0.71472,15.630414 -0.30648,3.9076 -0.17479,4.38887 -0.17479,4.38887 l 8.60655,1.78141 -2.02803,-22.018581 z"
         id="path10" />
    </g>
    <path
       style="fill:#11c711;fill-opacity:1;stroke-width:0.264583"
       d="m 382.77502,69.290006 c 3.19768,35.902304 3.58797,35.231884 3.19768,35.902304 -0.39029,0.67042 -0.39029,0.67042 -0.39029,0.67042 l 15.94887,1.96697 3.79029,16.25415 -28.56717,-5.89373 c 0,0 -13.24443,-59.444897 -11.35888,-52.034338 1.88556,7.410559 17.3795,3.134224 17.3795,3.134224 z"
       id="path11" />
    <path
       style="fill:url(#linearGradient25);fill-opacity:1;stroke-width:0.264583"
       d="m 402.71289,110.41202 c 3.85733,-54.803415 3.85733,-54.803415 3.85733,-54.803415 l 27.79858,1.061901 3.19887,68.578204 -35.80654,-2.27944 z"
       id="path12" />
    <path
       style="fill:#f85b35;fill-opacity:1;stroke-width:0.264583"
       d="M -27.191056,62.729739 C 21.880931,130.53726 22.009603,133.34776 22.009603,133.34776 L 61.359975,63.715107 Z"
       id="path13" />
    <path
       style="fill:#f88635;fill-opacity:1;stroke-width:0.264583"
       d="m 21.075029,64.476989 c 3.541905,0 -0.50115,60.957351 -0.50115,60.957351 L 54.018816,72.495376 -20.469563,67.443251 21.979129,126.45357 c 0,0 -17.4217068,-59.26428 -0.9041,-61.976581 z"
       id="path14" />
  </g>
</svg>
