<?xml version="1.0" encoding="UTF-8" standalone="no"?>
<!-- Created with Inkscape (http://www.inkscape.org/) -->

<svg
   width="249.69189"
   height="246.55125"
   viewBox="0 0 66.064312 65.233355"
   version="1.1"
   id="svg1"
   inkscape:version="1.3.1 (9b9bdc1480, 2023-11-25, custom)"
   sodipodi:docname="mountain3.svg"
   xml:space="preserve"
   xmlns:inkscape="http://www.inkscape.org/namespaces/inkscape"
   xmlns:sodipodi="http://sodipodi.sourceforge.net/DTD/sodipodi-0.dtd"
   xmlns:xlink="http://www.w3.org/1999/xlink"
   xmlns="http://www.w3.org/2000/svg"
   xmlns:svg="http://www.w3.org/2000/svg"><sodipodi:namedview
     id="namedview1"
     pagecolor="#ffffff"
     bordercolor="#000000"
     borderopacity="0.25"
     inkscape:showpageshadow="2"
     inkscape:pageopacity="0.0"
     inkscape:pagecheckerboard="0"
     inkscape:deskcolor="#d1d1d1"
     inkscape:document-units="mm"
     showguides="false"
     inkscape:zoom="2.4346116"
     inkscape:cx="147.66216"
     inkscape:cy="124.2498"
     inkscape:window-width="1920"
     inkscape:window-height="1043"
     inkscape:window-x="0"
     inkscape:window-y="0"
     inkscape:window-maximized="1"
     inkscape:current-layer="layer1" /><defs
     id="defs1"><linearGradient
       id="linearGradient23"
       inkscape:collect="always"><stop
         style="stop-color:#e1a450;stop-opacity:0.03901367;"
         offset="0"
         id="stop23" /><stop
         style="stop-color:#8d8d8d;stop-opacity:1;"
         offset="0.47925347"
         id="stop24" /></linearGradient><linearGradient
       id="linearGradient21"
       inkscape:collect="always"><stop
         style="stop-color:#969696;stop-opacity:1;"
         offset="0.58572668"
         id="stop21" /><stop
         style="stop-color:#e5ae63;stop-opacity:0;"
         offset="1"
         id="stop22" /></linearGradient><linearGradient
       inkscape:collect="always"
       xlink:href="#linearGradient21"
       id="linearGradient22"
       x1="32.692295"
       y1="1.639002"
       x2="32.410202"
       y2="67.603836"
       gradientUnits="userSpaceOnUse"
       gradientTransform="matrix(0.69942609,0,0,0.69942609,-131.43183,-31.155173)" /><linearGradient
       inkscape:collect="always"
       xlink:href="#linearGradient23"
       id="linearGradient24"
       x1="35.261749"
       y1="65.998428"
       x2="36.168941"
       y2="1.5706673"
       gradientUnits="userSpaceOnUse" /></defs><g
     inkscape:label="Layer 1"
     inkscape:groupmode="layer"
     id="layer1"
     transform="translate(-0.16371552,-1.1245084)"><path
       style="fill:url(#linearGradient22);stroke-width:0.185056"
       d="m -131.06583,15.146274 8.99013,-16.700329 -2.94219,-2.7019392 3.97778,-2.1683048 2.62936,2.2633778 -2.02109,1.9761097 1.79107,1.0989733 6.17982,-7.5916129 -2.79395,-0.9926605 2.82666,-1.2226734 -3.92768,-1.527316 5.71978,-3.266257 4.09228,2.893113 -2.56394,1.795161 1.33104,1.3852204 3.3695,-1.8524094 2.5803,2.8736904 -2.81031,1.64284 4.14134,6.03465545 3.533085,-3.44720565 -2.300182,-1.3944178 4.503241,-1.9188614 2.793949,2.6825158 -3.090414,1.6806649 9.993001,18.8870363 z"
       id="path20" /><path
       style="fill:url(#linearGradient24);fill-opacity:1;stroke-width:0.264583"
       d="M 0.25710877,66.409363 9.8800099,52.603294 10.650929,37.052043 l 1.501509,-0.07514 -0.279755,7.565279 6.28579,-0.07514 -0.01358,-7.605183 1.419578,0.09509 -0.12311,9.877187 5.589587,-9.825395 0.361686,-15.507526 1.392407,-0.0675 -0.08193,5.511476 2.750431,-0.134571 0.259379,-13.433771 1.672164,0.05943 0.07472,6.498897 6.436066,-0.226266 -0.02037,-6.542198 2.115357,-0.0399 -0.238577,13.076754 2.873115,0.07174 0.08193,-5.008001 1.924748,0.07132 -0.559935,12.176782 2.081821,0.04754 1.972297,7.866685 1.501508,-1.6416 1.95871,4.258308 2.5594,-3.152021 -2.272851,-1.720983 3.719597,-2.374735 -1.160197,-0.829078 2.989008,-1.609762 2.416339,2.054228 -1.99989,1.61358 0.621064,1.272696 1.712918,-1.3559 2.436715,2.105594 -2.880334,1.700604 c 2.992104,10.036889 3.058804,10.222618 6.374511,24.663037 z"
       id="path22"
       sodipodi:nodetypes="cccccccccccccccccccccccccccccccccccccccccc" /></g></svg>
