<?xml version="1.0" encoding="UTF-8" standalone="no"?>
<!-- Created with Inkscape (http://www.inkscape.org/) -->

<svg
   width="179.09201"
   height="176.84062"
   viewBox="0 0 47.38476 46.789083"
   version="1.1"
   id="svg1"
   inkscape:version="1.3.1 (9b9bdc1480, 2023-11-25, custom)"
   sodipodi:docname="ruins-2.svg"
   xml:space="preserve"
   xmlns:inkscape="http://www.inkscape.org/namespaces/inkscape"
   xmlns:sodipodi="http://sodipodi.sourceforge.net/DTD/sodipodi-0.dtd"
   xmlns:xlink="http://www.w3.org/1999/xlink"
   xmlns="http://www.w3.org/2000/svg"
   xmlns:svg="http://www.w3.org/2000/svg"><sodipodi:namedview
     id="namedview1"
     pagecolor="#ffffff"
     bordercolor="#000000"
     borderopacity="0.25"
     inkscape:showpageshadow="2"
     inkscape:pageopacity="0.0"
     inkscape:pagecheckerboard="0"
     inkscape:deskcolor="#d1d1d1"
     inkscape:document-units="mm"
     showguides="false"
     inkscape:zoom="0.70710678"
     inkscape:cx="325.97623"
     inkscape:cy="351.43207"
     inkscape:window-width="1920"
     inkscape:window-height="1043"
     inkscape:window-x="0"
     inkscape:window-y="0"
     inkscape:window-maximized="1"
     inkscape:current-layer="layer1" /><defs
     id="defs1"><linearGradient
       id="linearGradient15"
       inkscape:collect="always"><stop
         style="stop-color:#949494;stop-opacity:0.99215686;"
         offset="0.30582836"
         id="stop15" /><stop
         style="stop-color:#f6a567;stop-opacity:0;"
         offset="1"
         id="stop16" /></linearGradient><linearGradient
       inkscape:collect="always"
       xlink:href="#linearGradient15"
       id="linearGradient17"
       gradientUnits="userSpaceOnUse"
       x1="-29.445749"
       y1="135.28087"
       x2="-29.926376"
       y2="181.08397"
       gradientTransform="translate(143.33117,-156.23169)" /></defs><g
     inkscape:label="Layer 1"
     inkscape:groupmode="layer"
     id="layer1"
     transform="translate(-89.518637,22.092029)"><path
       id="path4-1"
       style="mix-blend-mode:normal;fill:url(#linearGradient17);fill-opacity:1;stroke-width:0.189774"
       d="m 111.05416,-22.091057 c -0.22774,0.007 -0.45528,0.0932 -0.45701,0.25093 -0.0237,2.16703 -0.2072,6.26181 -0.2072,6.26181 0,0 -0.78155,0.25904 -1.15309,0.43403 -0.24257,0.11425 -0.51459,0.20395 -0.69795,0.39956 -0.22065,0.23542 -0.39995,0.54795 -0.42588,0.86956 -0.0556,0.68915 -0.11082,4.9611796 -0.11082,4.9611796 l -0.15642,0.30505 -0.2476,0.12417 -0.32209,0.0234 -0.23796,-0.42069 c 0,0 -0.0617,-2.3911696 -0.0422,-2.6227396 0.0194,-0.23157 -0.25752,-0.34603 -0.65161,-0.36064 -0.39409,-0.0146 -0.202,0.45812 -0.202,0.45812 l -0.10675,11.28266956 -0.005,0.001 -3.13424,6.70585004 -2.56825,0.16605 -10.809453,17.9488004 47.280883,-0.03 -15.99698,-21.5953304 -1.97224,2.09455 -2.20501,-8.26036 -0.001,3.7e-4 -0.0415,-6.42155 c 0,0 -0.0651,-1.4181296 -0.004,-1.7850696 0.0618,-0.36694 8e-5,-0.30241 -0.0879,-0.5986 -0.0879,-0.29619 -0.1857,-0.23425 -0.1857,-0.23425 l -0.56339,-0.0282 -0.31617,0.30987 0.006,0.30578 0.0163,0.47073 0.01,0.68904 -0.0945,1.0593296 c 0,0 -0.19552,0.38412 -0.41698,0.47184 -0.22146,0.0877 -0.46239,-0.009 -0.54708,-0.15086 -0.0847,-0.14137 -0.0686,-0.78541 -0.0686,-0.78541 0,0 0.16489,-2.3881996 0.0456,-3.5734596 -0.0441,-0.43823 -0.0341,-0.92582 -0.27985,-1.29135 -0.229,-0.34078 -0.6345,-0.54485 -1.01625,-0.69609 -0.44542,-0.17647 -1.42034,-0.22054 -1.42034,-0.22054 -0.0795,-2.26724 -0.0825,-3.67046 -0.14678,-6.29665 -0.004,-0.15769 -0.23186,-0.22952 -0.45961,-0.22239 z m 25.74514,46.75857 0.0207,0.0282 0.0834,-0.0278 z M 111.3025,-9.0166574 c 0.23657,4e-5 0.47311,0.24733 0.53374,0.74205 0.0371,0.30312 0.0684,0.63859 0.093,0.99891 0.0707,1.03688 0.0707,2.72845 0,3.76546 -0.0246,0.36031 -0.0559,0.69579 -0.093,0.9989 -0.12126,0.98933 -0.94622,0.98907 -1.06748,-3.7e-4 -0.0371,-0.30311 -0.0684,-0.63822 -0.093,-0.99853 -0.0707,-1.03689 -0.0707,-2.72846 0,-3.76546 0.0246,-0.36032 0.0559,-0.6958 0.093,-0.99891 0.0606,-0.49467 0.29717,-0.74208 0.53374,-0.74205 z m 3.23802,1.40922 c 0.21961,0 0.43904,0.16165 0.50112,0.48481 0.0582,0.30312 0.10532,0.65906 0.13751,1.05154 0.0566,0.68962 0.0566,1.81559 0,2.50525 -0.0273,0.3329 -0.0659,0.63734 -0.11231,0.90773 l 0.52707,-0.14641 -0.52743,0.14789 c 9e-5,-5.1e-4 2.8e-4,-7.2e-4 3.6e-4,-10e-4 l -0.99038,0.27502 c 4.9e-4,10e-4 7.2e-4,0.002 0.001,0.004 l -7.40786,2.07675996 7.40638,-2.08046996 c -0.0154,-0.0405 -0.0283,-0.0838 -0.0374,-0.13122 -0.0582,-0.30311 -0.10495,-0.65906 -0.13714,-1.05154 -0.0566,-0.68961 -0.0566,-1.81557 0,-2.50524 0.0322,-0.39248 0.0789,-0.74843 0.13714,-1.05154 0.0621,-0.32315 0.28188,-0.48481 0.50149,-0.48481 z m -6.42489,0.063 c 0.21962,10e-6 0.43942,0.1734 0.50149,0.52039 0.0582,0.32546 0.10495,0.70797 0.13714,1.12938 0.0566,0.74046 0.0566,1.94932 0,2.68982 -0.0322,0.42143 -0.0789,0.80356 -0.13714,1.12902 -0.12416,0.69395 -0.87846,0.69399 -1.00262,0 -0.0582,-0.32547 -0.10532,-0.7076 -0.13751,-1.12902 -0.0566,-0.74045 -0.0566,-1.94968 0,-2.69019 0.0322,-0.42142 0.0793,-0.80355 0.13751,-1.12901 0.0621,-0.34697 0.2815,-0.5204 0.50113,-0.52039 z"
       sodipodi:nodetypes="sscssscccccsscccccccccccccccccccccsccscscssccccsssssssssscsssccccccccssssccssssssssss" /></g></svg>
