<?xml version="1.0" encoding="UTF-8" standalone="no"?>
<!-- Created with Inkscape (http://www.inkscape.org/) -->

<svg
   width="143.65387"
   height="141.84801"
   viewBox="0 0 38.008419 37.53062"
   version="1.1"
   id="svg1"
   inkscape:version="1.3.1 (9b9bdc1480, 2023-11-25, custom)"
   sodipodi:docname="ruins-250x250.svg"
   xml:space="preserve"
   xmlns:inkscape="http://www.inkscape.org/namespaces/inkscape"
   xmlns:sodipodi="http://sodipodi.sourceforge.net/DTD/sodipodi-0.dtd"
   xmlns:xlink="http://www.w3.org/1999/xlink"
   xmlns="http://www.w3.org/2000/svg"
   xmlns:svg="http://www.w3.org/2000/svg"><sodipodi:namedview
     id="namedview1"
     pagecolor="#ffffff"
     bordercolor="#000000"
     borderopacity="0.25"
     inkscape:showpageshadow="2"
     inkscape:pageopacity="0.0"
     inkscape:pagecheckerboard="0"
     inkscape:deskcolor="#d1d1d1"
     inkscape:document-units="mm"
     showguides="false"
     inkscape:zoom="0.70710678"
     inkscape:cx="603.16209"
     inkscape:cy="494.26764"
     inkscape:window-width="1920"
     inkscape:window-height="1043"
     inkscape:window-x="0"
     inkscape:window-y="0"
     inkscape:window-maximized="1"
     inkscape:current-layer="layer1" /><defs
     id="defs1"><linearGradient
       id="linearGradient19"
       inkscape:collect="always"><stop
         style="stop-color:#7d7d7d;stop-opacity:1;"
         offset="0"
         id="stop19" /><stop
         style="stop-color:#e5ae63;stop-opacity:0;"
         offset="1"
         id="stop20" /></linearGradient><linearGradient
       inkscape:collect="always"
       xlink:href="#linearGradient19"
       id="linearGradient20"
       x1="-153.02061"
       y1="120.69283"
       x2="-152.89326"
       y2="157.11667"
       gradientUnits="userSpaceOnUse"
       gradientTransform="translate(31.159033,-179.46919)" /></defs><g
     inkscape:label="Layer 1"
     inkscape:groupmode="layer"
     id="layer1"
     transform="translate(142.30686,60.053257)"><path
       id="path4-52"
       style="mix-blend-mode:normal;fill:url(#linearGradient20);stroke-width:0.152222"
       d="m -121.57258,-60.05249 c 0.18267,0.006 0.36519,0.0748 0.36658,0.20128 0.019,1.73822 0.1662,5.02274 0.1662,5.02274 0,0 0.62689,0.20778 0.92492,0.34815 0.19457,0.0916 0.41277,0.16359 0.55984,0.32049 0.17699,0.18884 0.32081,0.43953 0.3416,0.6975 0.0446,0.55278 0.0889,3.97947 0.0889,3.97947 l 0.12546,0.24469 0.19861,0.0996 0.25836,0.0188 0.19087,-0.33745 c 0,0 0.0495,-1.91801 0.0339,-2.10376 -0.0156,-0.18574 0.20656,-0.27755 0.52267,-0.28927 0.31611,-0.0117 0.16203,0.36747 0.16203,0.36747 l 0.0856,9.05008 0.004,8.1e-4 2.51404,5.37891 2.06005,0.1332 8.67051,14.39714 -37.92509,-0.0241 12.83156,-17.32211 1.58198,1.68008 1.76869,-6.62582 8.1e-4,3e-4 0.0333,-5.15088 c 0,0 0.0522,-1.13751 0.003,-1.43184 -0.0496,-0.29433 -7e-5,-0.24257 0.0705,-0.48015 0.0705,-0.23758 0.14895,-0.1879 0.14895,-0.1879 l 0.4519,-0.0226 0.25361,0.24855 -0.005,0.24528 -0.0131,0.37758 -0.008,0.55269 0.0758,0.84972 c 0,0 0.15683,0.30811 0.33447,0.37847 0.17764,0.0703 0.3709,-0.007 0.43883,-0.12101 0.0679,-0.11339 0.055,-0.62999 0.055,-0.62999 0,0 -0.13226,-1.91563 -0.0366,-2.86636 0.0354,-0.35151 0.0274,-0.74262 0.22447,-1.03582 0.18369,-0.27335 0.50895,-0.43704 0.81516,-0.55835 0.35729,-0.14155 1.13928,-0.1769 1.13928,-0.1769 0.0638,-1.8186 0.0662,-2.94416 0.11774,-5.05069 0.003,-0.12648 0.18598,-0.1841 0.36866,-0.17838 z m -20.65078,37.50613 -0.0166,0.0226 -0.0669,-0.0223 z m 20.45159,-27.01885 c -0.18977,3e-5 -0.3795,0.19839 -0.42814,0.59521 -0.0298,0.24314 -0.0549,0.51223 -0.0746,0.80125 -0.0567,0.83171 -0.0567,2.18856 0,3.02036 0.0197,0.28902 0.0448,0.55811 0.0746,0.80125 0.0973,0.79356 0.759,0.79335 0.85625,-3e-4 0.0298,-0.24313 0.0549,-0.51193 0.0746,-0.80095 0.0567,-0.83171 0.0567,-2.18856 0,-3.02036 -0.0197,-0.28902 -0.0448,-0.55811 -0.0746,-0.80125 -0.0486,-0.39678 -0.23836,-0.59524 -0.42811,-0.59521 z m -2.5973,1.13037 c -0.17616,0 -0.35217,0.12966 -0.40196,0.38887 -0.0467,0.24314 -0.0845,0.52865 -0.1103,0.84347 -0.0454,0.55316 -0.0454,1.45632 0,2.00952 0.0219,0.26702 0.0529,0.51122 0.0901,0.72811 l -0.42277,-0.11744 0.42306,0.11863 c -6e-5,-4.1e-4 -2.2e-4,-5.8e-4 -2.9e-4,-8.1e-4 l 0.79441,0.2206 c -3.9e-4,8e-4 -5.8e-4,0.002 -8e-4,0.003 l 5.94201,1.66582 -5.94082,-1.66879 c 0.0123,-0.0325 0.0227,-0.0672 0.03,-0.10526 0.0467,-0.24313 0.0842,-0.52865 0.11,-0.84346 0.0454,-0.55316 0.0454,-1.45631 0,-2.00951 -0.0258,-0.31482 -0.0633,-0.60034 -0.11,-0.84347 -0.0498,-0.2592 -0.22611,-0.38888 -0.40226,-0.38888 z m 5.15355,0.0505 c -0.17616,1e-5 -0.35246,0.13909 -0.40226,0.41742 -0.0467,0.26106 -0.0842,0.56788 -0.11,0.9059 -0.0454,0.59394 -0.0454,1.56359 0,2.15757 0.0258,0.33803 0.0633,0.64455 0.11,0.90561 0.0996,0.55663 0.70464,0.55666 0.80423,0 0.0467,-0.26107 0.0845,-0.56758 0.1103,-0.90561 0.0454,-0.59394 0.0454,-1.56389 0,-2.15787 -0.0258,-0.33803 -0.0636,-0.64454 -0.1103,-0.9056 -0.0498,-0.27832 -0.2258,-0.41743 -0.40197,-0.41742 z"
       sodipodi:nodetypes="sscssscccccsscccccccccccccccccccccsccscscssccccsssssssssscsssccccccccssssccssssssssss" /></g></svg>
